<?xml version="1.0" standalone="no"?>
<svg
  width="600"
  height="600"
  viewBox="0 0 600 600"
  xmlns="http://www.w3.org/2000/svg"
>
  <g transform="translate(300,300)">
    <path d="M91.8,-136.2C122,-123.5,151.5,-103.1,184.6,-72.1C217.7,-41.2,254.3,0.3,252.8,38.9C251.2,77.4,211.4,113,164.9,113.1C118.5,113.2,65.4,77.7,24.4,95.5C-16.7,113.2,-45.8,184.2,-71.8,197.9C-97.8,211.6,-120.7,168,-155.4,132.3C-190.1,96.5,-236.6,68.6,-234.8,37.8C-233,6.9,-182.9,-26.9,-144,-46.5C-105.1,-66.2,-77.4,-71.8,-55.3,-88.2C-33.2,-104.6,-16.6,-131.8,7.1,-142.9C30.8,-154,61.6,-148.9,91.8,-136.2Z" fill="#ff6900" />
  </g>
</svg>
    